<?xml version="1.0" encoding="UTF-8"?>
<svg id="Layer_1" data-name="Layer 1" xmlns="http://www.w3.org/2000/svg" viewBox="0 0 1083.55 717">
  <defs>
    <style>
      .cls-1 {
        fill: none;
      }

      .cls-1, .cls-2, .cls-3 {
        stroke: #000;
        stroke-miterlimit: 10;
      }

      .cls-4 {
        fill: #5b864d;
      }

      .cls-3 {
        fill: #fff;
      }
    </style>
  </defs>
  <path class="cls-4" d="m996.66,341.49l-85.04-69.02c-.92-.75-1.45-1.88-1.45-3.07v-83.37c0-2.17-1.77-3.95-3.95-3.95h-35.21c-2.15,0-3.91,1.72-3.95,3.87l-.72,36.97c-.06,3.27-3.86,5.06-6.41,3.01l-102.34-82.1c-1.5-1.2-3.64-1.15-5.08.11l-224.24,197.39c-2.74,2.41-1.04,6.92,2.6,6.92h47.93c2.16,0,3.93,1.76,3.95,3.92l1.17,212.09c.01,2.16,1.78,3.92,3.95,3.92h37.88c2.15,0,3.91-1.72,3.95-3.89l1.84-108.3c.04-2.16,1.78-3.89,3.95-3.89h107.66c2.19,0,3.95,1.77,3.95,3.95v108.18c0,2.17,1.77,3.95,3.95,3.95h38.68c2.17,0,3.95-1.77,3.95-3.95v-108.18c0-2.17,1.77-3.95,3.95-3.95h101.82c2.17,0,3.95,1.77,3.95,3.95v108.18c0,2.17,1.77,3.95,3.95,3.95h37.13c2.17,0,3.95-1.77,3.95-3.95v-211.81c0-2.17,1.76-3.95,3.95-3.95h41.85c3.71,0,5.38-4.67,2.48-7Zm-93.81,65.42c1.22,3.67-109.67,0-109.67,0,0,0-1.53-95.3-.04-97.75,1.49-2.44-45.48,0-45.48,0l-.06,97.75h-118.46v-87.91l133.71-117.98,140,115.92s-1.23,86.31,0,89.98Z"/>
  <path class="cls-2" d="m980.23.5H103.32C46.53.5.5,46.53.5,103.32v510.36c0,56.79,46.03,102.82,102.82,102.82h876.92c56.79,0,102.82-46.03,102.82-102.82V103.32c0-56.79-46.03-102.82-102.82-102.82Zm-477.41,562.39c0,3.6-2.92,6.52-6.54,6.52h-36.52c-3.62,0-6.51-2.96-6.45-6.57.37-18.99.73-37.97,1.1-56.96-11.75,12.95-31.72,31.77-61.09,46.43-58.55,29.23-113.81,21.63-131.96,18.33-86.09-15.66-131.32-79.36-138.07-89.19-9.27-13.53-52.16-79.41-32.99-163.73,17.75-78.05,80.02-133.88,146.62-152.73,57.85-16.38,106.58-1.36,122.18,3.67,55.2,17.74,89.07,52.8,104.86,72.38,3.52,4.37,2.53,10.83-2.11,13.98-8.38,5.67-16.76,11.33-25.13,17-4.37,2.96-10.29,2.09-13.57-2.03-11.11-13.88-29.04-31.82-55.48-43.9-57.73-26.39-134.18-14.81-183.28,35.43-37.72,38.6-57.71,99.34-39.1,156.4,22.87,70.16,94.19,104.43,153.95,106.3,80.39,2.52,132.25-53.83,147.28-72.63,2.74-3.42,4.17-7.69,4.04-12.07-.32-11-.64-21.99-.94-32.99-.06-1.83-1.54-3.29-3.37-3.31l-136.81-1.36c-2.94-.02-5.31-2.42-5.31-5.36v-40.5c0-2.24,1.82-4.06,4.06-4.06l194.64.2v210.77Zm491.35-214.4h-41.85c-2.19,0-3.95,1.77-3.95,3.95v211.81c0,2.17-1.77,3.95-3.95,3.95h-37.13c-2.17,0-3.95-1.77-3.95-3.95v-108.18c0-2.17-1.77-3.95-3.95-3.95h-101.82c-2.17,0-3.95,1.77-3.95,3.95v108.18c0,2.17-1.77,3.95-3.95,3.95h-38.68c-2.17,0-3.95-1.77-3.95-3.95v-108.18c0-2.17-1.76-3.95-3.95-3.95h-107.66c-2.16,0-3.91,1.72-3.95,3.89l-1.84,108.3c-.04,2.16-1.8,3.89-3.95,3.89h-37.88c-2.16,0-3.93-1.76-3.95-3.92l-1.17-212.09c-.01-2.16-1.78-3.92-3.95-3.92h-47.93c-3.64,0-5.34-4.51-2.6-6.92l224.24-197.39c1.44-1.26,3.58-1.31,5.08-.11l102.34,82.1c2.55,2.05,6.35.27,6.41-3.01l.72-36.97c.04-2.15,1.8-3.87,3.95-3.87h35.21c2.17,0,3.95,1.77,3.95,3.95v83.37c0,1.19.54,2.32,1.45,3.07l85.04,69.02c2.9,2.33,1.23,7-2.48,7Z"/>
  <path class="cls-3" d="m502.82,352.12v210.77c0,3.6-2.92,6.52-6.54,6.52h-36.52c-3.62,0-6.51-2.96-6.45-6.57.37-18.99.73-37.97,1.1-56.96-11.75,12.95-31.72,31.77-61.09,46.43-58.55,29.23-113.81,21.63-131.96,18.33-86.09-15.66-131.32-79.36-138.07-89.19-9.27-13.53-52.16-79.41-32.99-163.73,17.75-78.05,80.02-133.88,146.62-152.73,57.85-16.38,106.58-1.36,122.18,3.67,55.2,17.74,89.07,52.8,104.86,72.38,3.52,4.37,2.53,10.83-2.11,13.98-8.38,5.67-16.76,11.33-25.13,17-4.37,2.96-10.29,2.09-13.57-2.03-11.11-13.88-29.04-31.82-55.48-43.9-57.73-26.39-134.18-14.81-183.28,35.43-37.72,38.6-57.71,99.34-39.1,156.4,22.87,70.16,94.19,104.43,153.95,106.3,80.39,2.52,132.25-53.83,147.28-72.63,2.74-3.42,4.17-7.69,4.04-12.07-.32-11-.64-21.99-.94-32.99-.06-1.83-1.54-3.29-3.37-3.31l-136.81-1.36c-2.94-.02-5.31-2.42-5.31-5.36v-40.5c0-2.24,1.82-4.06,4.06-4.06l194.64.2Z"/>
  <path class="cls-2" d="m902.84,406.91c1.22,3.67-109.67,0-109.67,0,0,0-1.53-95.3-.04-97.75,1.49-2.44-45.48,0-45.48,0l-.06,97.75h-118.46v-87.91l133.71-117.98,140,115.92s-1.23,86.31,0,89.98Z"/>
  <path class="cls-1" d="m996.66,341.49l-85.04-69.02c-.92-.75-1.45-1.88-1.45-3.07v-83.37c0-2.17-1.77-3.95-3.95-3.95h-35.21c-2.15,0-3.91,1.72-3.95,3.87l-.72,36.97c-.06,3.27-3.86,5.06-6.41,3.01l-102.34-82.1c-1.5-1.2-3.64-1.15-5.08.11l-224.24,197.39c-2.74,2.41-1.04,6.92,2.6,6.92h47.93c2.16,0,3.93,1.76,3.95,3.92l1.17,212.09c.01,2.16,1.78,3.92,3.95,3.92h37.88c2.15,0,3.91-1.72,3.95-3.89l1.84-108.3c.04-2.16,1.78-3.89,3.95-3.89h107.66c2.19,0,3.95,1.77,3.95,3.95v108.18c0,2.17,1.77,3.95,3.95,3.95h38.68c2.17,0,3.95-1.77,3.95-3.95v-108.18c0-2.17,1.77-3.95,3.95-3.95h101.82c2.17,0,3.95,1.77,3.95,3.95v108.18c0,2.17,1.77,3.95,3.95,3.95h37.13c2.17,0,3.95-1.77,3.95-3.95v-211.81c0-2.17,1.76-3.95,3.95-3.95h41.85c3.71,0,5.38-4.67,2.48-7Zm-93.81,65.42c1.22,3.67-109.67,0-109.67,0,0,0-1.53-95.3-.04-97.75,1.49-2.44-45.48,0-45.48,0l-.06,97.75h-118.46v-87.91l133.71-117.98,140,115.92s-1.23,86.31,0,89.98Z"/>
</svg>