<?xml version="1.0" encoding="UTF-8"?>
<svg id="Layer_1" data-name="Layer 1" xmlns="http://www.w3.org/2000/svg" viewBox="0 0 686.58 127.85">
  <path d="M47.84,98.24c-9.04,0-16.67-1.69-22.89-5.07-6.23-3.38-10.99-8.14-14.29-14.29-3.3-6.15-4.96-13.36-4.96-21.64s1.71-15.87,5.13-22.1c3.42-6.23,8.31-11.03,14.69-14.41,6.38-3.38,14.01-5.07,22.89-5.07,3.8,0,7.44.32,10.93.97,3.49.65,6.72,1.63,9.68,2.96,2.96,1.33,5.5,2.9,7.63,4.73l-5.47,13.78c-3.57-2.51-7.18-4.35-10.82-5.52-3.65-1.18-7.59-1.77-11.85-1.77-8.05,0-14.12,2.26-18.22,6.78-4.1,4.52-6.15,11.07-6.15,19.65s2.07,15.07,6.21,19.48c4.14,4.4,10.27,6.61,18.4,6.61,2.66,0,5.45-.28,8.37-.85,2.92-.57,5.79-1.31,8.6-2.22l-3.3,7.29v-21.98h-17.31v-12.76h31.89v39.52c-2.58,1.21-5.49,2.26-8.71,3.13-3.23.87-6.59,1.56-10.08,2.05-3.49.49-6.95.74-10.37.74Z" fill="#5b864d" stroke-width="0"/>
  <path d="M91.12,97.1v-55.81h16.86v13.55h-1.14c.91-4.56,2.9-8.05,5.98-10.48,3.08-2.43,7.19-3.83,12.36-4.21l4.78-.46,1.02,14.58-9.57.91c-4.33.38-7.54,1.63-9.62,3.76-2.09,2.13-3.13,5.2-3.13,9.23v28.93h-17.54Z" fill="#5b864d" stroke-width="0"/>
  <path d="M167.09,98.24c-6.61,0-12.28-1.18-17.03-3.53-4.75-2.35-8.39-5.71-10.93-10.08-2.54-4.37-3.82-9.55-3.82-15.55s1.23-10.8,3.7-15.09c2.47-4.29,5.87-7.69,10.19-10.19s9.23-3.76,14.69-3.76,10.29,1.16,14.24,3.47c3.95,2.32,7,5.62,9.17,9.91,2.16,4.29,3.25,9.32,3.25,15.09v4.33h-41v-8.88h28.59l-1.82,1.59c0-4.63-1.01-8.16-3.02-10.59-2.01-2.43-4.88-3.64-8.6-3.64-2.81,0-5.2.65-7.18,1.94-1.98,1.29-3.49,3.17-4.56,5.64-1.06,2.47-1.59,5.41-1.59,8.83v.91c0,3.87.59,7.06,1.77,9.57,1.18,2.51,2.98,4.35,5.41,5.52,2.43,1.18,5.39,1.76,8.88,1.76,3.04,0,6.11-.46,9.23-1.37,3.11-.91,5.92-2.32,8.43-4.21l4.56,11.5c-2.81,2.05-6.26,3.7-10.37,4.95s-8.16,1.88-12.19,1.88Z" fill="#5b864d" stroke-width="0"/>
  <path d="M229.62,98.24c-6.61,0-12.28-1.18-17.03-3.53-4.75-2.35-8.39-5.71-10.93-10.08-2.54-4.37-3.82-9.55-3.82-15.55s1.23-10.8,3.7-15.09c2.47-4.29,5.87-7.69,10.19-10.19s9.23-3.76,14.69-3.76,10.29,1.16,14.24,3.47c3.95,2.32,7,5.62,9.17,9.91,2.16,4.29,3.25,9.32,3.25,15.09v4.33h-41v-8.88h28.59l-1.82,1.59c0-4.63-1.01-8.16-3.02-10.59-2.01-2.43-4.88-3.64-8.6-3.64-2.81,0-5.2.65-7.18,1.94-1.98,1.29-3.49,3.17-4.56,5.64-1.06,2.47-1.59,5.41-1.59,8.83v.91c0,3.87.59,7.06,1.77,9.57,1.18,2.51,2.98,4.35,5.41,5.52,2.43,1.18,5.39,1.76,8.88,1.76,3.04,0,6.11-.46,9.23-1.37,3.11-.91,5.92-2.32,8.43-4.21l4.56,11.5c-2.81,2.05-6.26,3.7-10.37,4.95s-8.16,1.88-12.19,1.88Z" fill="#5b864d" stroke-width="0"/>
  <path d="M263.11,97.1v-55.81h16.86v10.48h-1.25c1.67-3.8,4.25-6.7,7.75-8.71,3.49-2.01,7.4-3.02,11.73-3.02,4.56,0,8.26.85,11.11,2.56,2.85,1.71,4.99,4.31,6.43,7.8,1.44,3.49,2.16,7.9,2.16,13.21v33.49h-17.2v-32.8c0-2.58-.3-4.67-.91-6.26-.61-1.59-1.54-2.77-2.79-3.53-1.25-.76-2.83-1.14-4.73-1.14-2.43,0-4.54.51-6.32,1.54-1.79,1.03-3.17,2.47-4.16,4.33-.99,1.86-1.48,4.08-1.48,6.66v31.21h-17.2Z" fill="#5b864d" stroke-width="0"/>
  <path d="M354.91,97.1l36.9-80.3h14.12l36.9,80.3h-17.77l-9.57-22.32,7.06,4.9h-47.5l7.06-4.9-9.45,22.32h-17.77ZM398.76,35.59l-14.69,34.85-3.08-4.56h35.65l-2.96,4.56-14.69-34.85h-.23Z" fill="#000" stroke-width="0"/>
  <path d="M469.72,98.24c-3.27,0-6.42-.25-9.45-.74-3.04-.49-5.81-1.2-8.32-2.11s-4.71-2.09-6.61-3.53l4.1-11.05c1.9,1.06,3.97,2.05,6.21,2.96,2.24.91,4.57,1.59,7,2.05,2.43.46,4.82.68,7.18.68,3.19,0,5.54-.53,7.06-1.59,1.52-1.06,2.28-2.43,2.28-4.1,0-1.44-.49-2.52-1.48-3.25-.99-.72-2.43-1.27-4.33-1.65l-12.07-2.16c-4.63-.91-8.22-2.66-10.76-5.24-2.54-2.58-3.82-5.92-3.82-10.02,0-3.87,1.06-7.18,3.19-9.91,2.12-2.73,5.07-4.84,8.83-6.32,3.76-1.48,8.03-2.22,12.81-2.22,2.73,0,5.39.23,7.97.68,2.58.46,5.03,1.14,7.35,2.05,2.32.91,4.42,2.09,6.32,3.53l-4.44,11.05c-1.44-1.06-3.15-2.01-5.12-2.85-1.98-.83-3.99-1.48-6.04-1.94-2.05-.46-3.95-.68-5.69-.68-3.49,0-6.02.53-7.58,1.59-1.56,1.06-2.33,2.43-2.33,4.1,0,1.29.46,2.37,1.37,3.25.91.87,2.28,1.46,4.1,1.77l12.07,2.05c4.86.91,8.58,2.6,11.16,5.07,2.58,2.47,3.87,5.79,3.87,9.97,0,3.95-1.03,7.31-3.08,10.08-2.05,2.77-4.94,4.88-8.66,6.32-3.72,1.44-8.09,2.16-13.1,2.16Z" fill="#000" stroke-width="0"/>
  <path d="M525.76,98.24c-3.27,0-6.42-.25-9.45-.74-3.04-.49-5.81-1.2-8.32-2.11s-4.71-2.09-6.61-3.53l4.1-11.05c1.9,1.06,3.97,2.05,6.21,2.96,2.24.91,4.57,1.59,7,2.05,2.43.46,4.82.68,7.18.68,3.19,0,5.54-.53,7.06-1.59,1.52-1.06,2.28-2.43,2.28-4.1,0-1.44-.49-2.52-1.48-3.25-.99-.72-2.43-1.27-4.33-1.65l-12.07-2.16c-4.63-.91-8.22-2.66-10.76-5.24-2.54-2.58-3.82-5.92-3.82-10.02,0-3.87,1.06-7.18,3.19-9.91,2.12-2.73,5.07-4.84,8.83-6.32,3.76-1.48,8.03-2.22,12.81-2.22,2.73,0,5.39.23,7.97.68,2.58.46,5.03,1.14,7.35,2.05,2.32.91,4.42,2.09,6.32,3.53l-4.44,11.05c-1.44-1.06-3.15-2.01-5.12-2.85-1.98-.83-3.99-1.48-6.04-1.94-2.05-.46-3.95-.68-5.69-.68-3.49,0-6.02.53-7.58,1.59-1.56,1.06-2.33,2.43-2.33,4.1,0,1.29.46,2.37,1.37,3.25.91.87,2.28,1.46,4.1,1.77l12.07,2.05c4.86.91,8.58,2.6,11.16,5.07,2.58,2.47,3.87,5.79,3.87,9.97,0,3.95-1.03,7.31-3.08,10.08-2.05,2.77-4.94,4.88-8.66,6.32-3.72,1.44-8.09,2.16-13.1,2.16Z" fill="#000" stroke-width="0"/>
  <path d="M559.7,30.35v-15.95h18.68v15.95h-18.68ZM560.39,97.1v-55.81h17.2v55.81h-17.2Z" fill="#000" stroke-width="0"/>
  <path d="M612.32,98.24c-3.27,0-6.42-.25-9.45-.74-3.04-.49-5.81-1.2-8.32-2.11s-4.71-2.09-6.61-3.53l4.1-11.05c1.9,1.06,3.97,2.05,6.21,2.96,2.24.91,4.57,1.59,7,2.05,2.43.46,4.82.68,7.18.68,3.19,0,5.54-.53,7.06-1.59,1.52-1.06,2.28-2.43,2.28-4.1,0-1.44-.49-2.52-1.48-3.25-.99-.72-2.43-1.27-4.33-1.65l-12.07-2.16c-4.63-.91-8.22-2.66-10.76-5.24-2.54-2.58-3.82-5.92-3.82-10.02,0-3.87,1.06-7.18,3.19-9.91,2.12-2.73,5.07-4.84,8.83-6.32,3.76-1.48,8.03-2.22,12.81-2.22,2.73,0,5.39.23,7.97.68,2.58.46,5.03,1.14,7.35,2.05,2.32.91,4.42,2.09,6.32,3.53l-4.44,11.05c-1.44-1.06-3.15-2.01-5.12-2.85-1.98-.83-3.99-1.48-6.04-1.94-2.05-.46-3.95-.68-5.69-.68-3.49,0-6.02.53-7.58,1.59-1.56,1.06-2.33,2.43-2.33,4.1,0,1.29.46,2.37,1.37,3.25.91.87,2.28,1.46,4.1,1.77l12.07,2.05c4.86.91,8.58,2.6,11.16,5.07,2.58,2.47,3.87,5.79,3.87,9.97,0,3.95-1.03,7.31-3.08,10.08-2.05,2.77-4.94,4.88-8.66,6.32-3.72,1.44-8.09,2.16-13.1,2.16Z" fill="#000" stroke-width="0"/>
  <path d="M674.4,98.24c-7.97,0-13.88-1.92-17.71-5.75-3.83-3.83-5.75-9.51-5.75-17.03v-21.53h-10.59v-12.64h10.59v-16.52h17.2v16.52h16.4v12.64h-16.4v20.84c0,3.19.72,5.56,2.16,7.12,1.44,1.56,3.8,2.34,7.06,2.34.91,0,1.94-.09,3.08-.29,1.14-.19,2.39-.47,3.76-.85l2.39,12.53c-1.52.84-3.4,1.48-5.64,1.94-2.24.46-4.42.68-6.55.68Z" fill="#000" stroke-width="0"/>
</svg>