<?xml version="1.0" encoding="UTF-8"?>
<svg xmlns="http://www.w3.org/2000/svg" viewBox="0 0 653 460">
  <g id="Layer_1" data-name="Layer 1">
    <rect width="653" height="460" fill="#f6f6f6" stroke-width="0"/>
  </g>
  <g id="Layer_2" data-name="Layer 2">
    <g>
      <path d="M85.51,261.42l34.95-76.05h13.38l34.95,76.05h-16.83l-9.06-21.14,6.69,4.64h-44.98l6.69-4.64-8.95,21.14h-16.83ZM127.04,203.17l-13.92,33.01-2.91-4.32h33.77l-2.8,4.32-13.92-33.01h-.22Z" fill="#000" stroke-width="0"/>
      <path d="M206.65,262.5c-4.24,0-8-1.04-11.27-3.13-3.27-2.08-5.45-4.89-6.53-8.41h1.08v10.46h-15.97v-76.05h16.29v32.9h-1.19c1.08-3.24,3.24-5.86,6.47-7.88,3.24-2.01,6.94-3.02,11.11-3.02,4.67,0,8.74,1.12,12.19,3.34,3.45,2.23,6.15,5.39,8.09,9.49,1.94,4.1,2.91,8.99,2.91,14.67s-.95,10.61-2.86,14.78c-1.91,4.17-4.62,7.35-8.14,9.55-3.52,2.2-7.59,3.29-12.19,3.29ZM201.8,250.42c3.45,0,6.26-1.26,8.41-3.78,2.16-2.52,3.24-6.44,3.24-11.76s-1.08-9.12-3.24-11.6c-2.16-2.48-4.96-3.72-8.41-3.72s-6.26,1.24-8.41,3.72c-2.16,2.48-3.24,6.35-3.24,11.6s1.08,9.24,3.24,11.76c2.16,2.52,4.96,3.78,8.41,3.78Z" fill="#000" stroke-width="0"/>
      <path d="M265.23,262.5c-5.68,0-10.61-1.11-14.78-3.34-4.17-2.23-7.43-5.41-9.76-9.55-2.34-4.13-3.51-9.04-3.51-14.73s1.17-10.48,3.51-14.62c2.34-4.13,5.59-7.32,9.76-9.55,4.17-2.23,9.1-3.34,14.78-3.34s10.63,1.12,14.83,3.34c4.21,2.23,7.48,5.41,9.82,9.55,2.34,4.14,3.51,9.01,3.51,14.62s-1.17,10.59-3.51,14.73c-2.34,4.14-5.61,7.32-9.82,9.55-4.21,2.23-9.15,3.34-14.83,3.34ZM265.23,250.42c3.52,0,6.36-1.26,8.52-3.78,2.16-2.52,3.24-6.44,3.24-11.76s-1.08-9.12-3.24-11.6c-2.16-2.48-5-3.72-8.52-3.72s-6.26,1.24-8.41,3.72-3.24,6.35-3.24,11.6,1.08,9.24,3.24,11.76c2.16,2.52,4.96,3.78,8.41,3.78Z" fill="#000" stroke-width="0"/>
      <path d="M322.83,262.5c-4.46,0-8.16-.83-11.11-2.48-2.95-1.65-5.12-4.12-6.53-7.39-1.4-3.27-2.1-7.39-2.1-12.35v-31.72h16.29v32.04c0,2.01.29,3.74.86,5.18.58,1.44,1.46,2.5,2.64,3.18,1.19.68,2.71,1.03,4.58,1.03,2.08,0,3.92-.49,5.5-1.46,1.58-.97,2.82-2.35,3.72-4.15.9-1.8,1.35-3.92,1.35-6.36v-29.45h16.29v52.86h-15.97v-10.36h1.73c-1.58,3.74-3.85,6.58-6.8,8.52-2.95,1.94-6.44,2.91-10.46,2.91Z" fill="#000" stroke-width="0"/>
      <path d="M392.95,262.5c-7.55,0-13.14-1.82-16.77-5.45-3.63-3.63-5.45-9.01-5.45-16.13v-20.39h-10.03v-11.97h10.03v-15.64h16.29v15.64h15.53v11.97h-15.53v19.74c0,3.02.68,5.27,2.05,6.74,1.37,1.47,3.6,2.21,6.69,2.21.86,0,1.83-.09,2.91-.27,1.08-.18,2.27-.45,3.56-.81l2.27,11.87c-1.44.79-3.22,1.4-5.34,1.83-2.12.43-4.19.65-6.2.65Z" fill="#000" stroke-width="0"/>
      <path d="M474.5,262.5c-10.79,0-19-2.75-24.65-8.25-5.65-5.5-8.47-13.68-8.47-24.54v-44.34h16.72v44.34c0,6.19,1.4,10.84,4.21,13.97,2.8,3.13,6.87,4.69,12.19,4.69s9.28-1.56,12.08-4.69c2.8-3.13,4.21-7.78,4.21-13.97v-44.34h16.5v44.34c0,10.86-2.79,19.04-8.36,24.54-5.57,5.5-13.72,8.25-24.43,8.25Z" fill="#5b864d" stroke-width="0"/>
      <path d="M540.96,262.5c-3.09,0-6.08-.23-8.95-.7-2.88-.47-5.5-1.13-7.88-2s-4.46-1.98-6.26-3.34l3.88-10.46c1.8,1.01,3.76,1.94,5.88,2.81,2.12.86,4.33,1.51,6.63,1.94,2.3.43,4.57.65,6.8.65,3.02,0,5.25-.5,6.69-1.51,1.44-1.01,2.16-2.3,2.16-3.88,0-1.37-.47-2.39-1.4-3.07-.94-.68-2.3-1.2-4.1-1.56l-11.43-2.05c-4.39-.86-7.79-2.52-10.19-4.96-2.41-2.44-3.61-5.61-3.61-9.49,0-3.67,1.01-6.8,3.02-9.39,2.01-2.59,4.8-4.58,8.36-5.99,3.56-1.4,7.6-2.1,12.14-2.1,2.59,0,5.11.22,7.55.65,2.44.43,4.76,1.08,6.96,1.94,2.19.86,4.19,1.98,5.99,3.34l-4.21,10.46c-1.37-1.01-2.99-1.9-4.85-2.7-1.87-.79-3.78-1.4-5.72-1.83-1.94-.43-3.74-.65-5.39-.65-3.31,0-5.7.5-7.17,1.51-1.47,1.01-2.21,2.3-2.21,3.88,0,1.22.43,2.25,1.29,3.07.86.83,2.16,1.39,3.88,1.67l11.43,1.94c4.6.86,8.13,2.46,10.57,4.8,2.44,2.34,3.67,5.49,3.67,9.44,0,3.74-.97,6.92-2.91,9.55-1.94,2.63-4.68,4.62-8.2,5.99-3.52,1.37-7.66,2.05-12.41,2.05Z" fill="#5b864d" stroke-width="0"/>
    </g>
  </g>
</svg>